<svg width="402" height="245" viewBox="0 0 402 245" fill="none" xmlns="http://www.w3.org/2000/svg">
<rect x="184.857" y="-18" width="100" height="154" transform="rotate(15 184.857 -18)" fill="#D7FF81"/>
<path d="M132.978 55.1082L131.162 64.5211C127.962 81.101 132.166 98.2512 142.669 111.472L148.632 118.979L139.219 117.162C122.64 113.963 105.489 118.166 92.2681 128.67L84.7619 134.633L86.5784 125.22C89.7779 108.64 85.5745 91.4899 75.0709 78.2686L69.1077 70.7624L78.5206 72.5789C95.1005 75.7784 112.251 71.575 125.472 61.0714L132.978 55.1082Z" fill="#FF4365"/>
<path fill-rule="evenodd" clip-rule="evenodd" d="M7.90983 113.662C12.9038 105.012 23.9642 102.048 32.6139 107.042L93.2555 142.054C101.905 147.048 104.869 158.108 99.875 166.758C94.881 175.408 83.8207 178.371 75.1709 173.377L75.4319 173.528C83.9375 178.439 86.8517 189.315 81.941 197.82C77.0303 206.326 66.1543 209.24 57.6487 204.329L57.3877 204.179C66.0374 209.173 69.0011 220.233 64.0071 228.883C59.0132 237.533 47.9528 240.496 39.3031 235.502L-21.3386 200.491C-29.9883 195.497 -32.952 184.436 -27.958 175.787C-22.9641 167.137 -11.9037 164.173 -3.25396 169.167L-3.51497 169.017C-12.0206 164.106 -14.9348 153.23 -10.0241 144.724C-5.11339 136.219 5.76265 133.304 14.2682 138.215L14.5293 138.366C5.87953 133.372 2.9159 122.311 7.90983 113.662Z" fill="#BC96FF"/>
<path d="M274.44 33.4404L381.954 62.2485L303.249 140.954L274.44 33.4404Z" fill="#BC96FF"/>
<path d="M395.984 81.9176L429.046 124.709L398.566 169.377L346.666 154.191L345.07 100.138L395.984 81.9176Z" fill="#FF4365"/>
</svg>
