<svg width="402" height="209" viewBox="0 0 402 209" fill="none" xmlns="http://www.w3.org/2000/svg">
<rect x="189.475" y="184.678" width="118.839" height="42.0669" transform="rotate(-30.119 189.475 184.678)" fill="#BC96FF"/>
<rect x="357.593" y="344.635" width="100" height="154" transform="rotate(-165 357.593 344.635)" fill="#D7FF81"/>
<rect x="91.4512" y="335.752" width="100" height="154" transform="rotate(165 91.4512 335.752)" fill="#D7FF81"/>
<path d="M172.332 103.718L173.535 97.4848C175.654 86.5051 172.87 75.1477 165.914 66.3921L161.965 61.4213L168.199 62.6242C179.179 64.7431 190.536 61.9594 199.292 55.0036L204.263 51.0546L203.06 57.2881C200.941 68.2678 203.724 79.6253 210.68 88.3808L214.629 93.3517L208.396 92.1487C197.416 90.0299 186.059 92.8135 177.303 99.7693L172.332 103.718Z" fill="#BC96FF"/>
<path fill-rule="evenodd" clip-rule="evenodd" d="M273.553 105.815C266.068 96.8497 267.268 83.5142 276.233 76.0291L339.086 23.5525C348.051 16.0674 361.386 17.2672 368.871 26.2323C376.356 35.1975 375.157 48.533 366.192 56.0181L366.462 55.7922C375.278 48.4319 388.391 49.6117 395.751 58.4274C403.112 67.2431 401.932 80.3564 393.116 87.7168L392.846 87.9427C401.811 80.4576 415.146 81.6574 422.632 90.6225C430.117 99.5876 428.917 112.923 419.952 120.408L357.099 172.885C348.134 180.37 334.798 179.17 327.313 170.205C319.828 161.24 321.028 147.904 329.993 140.419L329.722 140.645C320.907 148.005 307.793 146.826 300.433 138.01C293.073 129.194 294.253 116.081 303.068 108.721L303.339 108.495C294.374 115.98 281.038 114.78 273.553 105.815Z" fill="#FF4365"/>
<path d="M128.693 208.106L21.1801 179.298L99.8853 100.593L128.693 208.106Z" fill="#BC96FF"/>
<path d="M7.14883 159.629L-25.9136 116.838L4.56681 72.1702L56.4671 87.3557L58.0629 141.408L7.14883 159.629Z" fill="#FF4365"/>
<path d="M129.099 8.86784C125.792 8.91307 122.526 9.56523 119.41 10.6587C112.527 13.0181 106.661 17.6279 102.644 23.7467C102.08 23.5618 101.431 23.4512 100.835 23.333C100.235 23.205 99.0881 22.781 98.2086 22.6458L96.0371 22.4646C94.8586 22.2679 93.6876 22.2349 92.473 22.2672C92.3413 22.208 92.1567 22.1563 91.9262 22.1318L91.6348 22.234C88.3674 22.2654 85.1638 22.7792 82.0191 23.7771L81.4758 23.9677C80.0928 24.4529 78.7476 25.0303 77.4308 25.7197L76.838 25.9277C75.4238 26.6402 74.0683 27.5041 72.8092 28.5006C56.4966 40.997 56.9458 63.306 68.6618 78.8329C74.9578 86.659 82.894 92.9777 91.8504 97.3186C104.735 103.227 118.137 107.733 131.904 110.78L133.467 111.125L134.44 109.946C143.229 98.93 150.819 87.0587 157.116 74.4759C161.441 65.475 163.667 55.5353 163.644 45.5084C162.997 26.098 149.41 8.39871 129.099 8.86784Z" fill="#FF4365"/>
<circle cx="161" cy="148" r="46" fill="#D7FF81"/>
<rect x="219.109" y="81.3486" width="51.4687" height="51.4687" transform="rotate(15.9099 219.109 81.3486)" fill="#D7FF81"/>
</svg>
