<svg width="139" height="37" viewBox="0 0 139 37" fill="none" xmlns="http://www.w3.org/2000/svg">
<path d="M119.489 25.6201C119.813 27.3888 120.609 28.8038 121.877 29.8651C123.174 30.8969 124.795 31.4127 126.741 31.4127C129.866 31.4127 132.342 30.2041 134.17 27.7868L137.928 30.3515C136.779 32.5329 135.216 34.169 133.241 35.2598C131.266 36.3505 129.099 36.8959 126.741 36.8959C124.412 36.8959 122.26 36.321 120.285 35.1713C118.31 33.9922 116.733 32.415 115.554 30.4399C114.404 28.4353 113.829 26.2539 113.829 23.8956C113.829 21.5372 114.404 19.3705 115.554 17.3954C116.733 15.4203 118.31 13.8579 120.285 12.7082C122.26 11.529 124.412 10.9395 126.741 10.9395C129.217 10.9395 131.399 11.5585 133.285 12.7966C135.172 14.0348 136.616 15.774 137.619 18.0145C138.621 20.2254 139.078 22.7606 138.99 25.6201H119.489ZM126.741 16.3341C124.913 16.3341 123.351 16.8648 122.054 17.926C120.786 18.9578 119.946 20.2844 119.533 21.9057H133.683C133.33 20.1664 132.504 18.8104 131.207 17.8376C129.939 16.8353 128.451 16.3341 126.741 16.3341Z" fill="white"/>
<path d="M101.377 23.2761C101.377 25.8998 101.509 27.6685 101.775 28.5824C102.04 29.4962 102.659 30.0858 103.632 30.3511C104.634 30.587 106.565 30.7049 109.425 30.7049V36.2322C105.062 36.2322 101.952 35.8785 100.094 35.171C98.2372 34.4635 97.0581 33.2843 96.5569 31.6335C96.0852 29.9532 95.8494 27.1674 95.8494 23.2761V16.8644H90.9854V11.2044H95.8494V2.62598H101.377V11.2044H109.38V16.8644H101.377V23.2761Z" fill="white"/>
<path d="M76.0115 10.9395C80.1681 10.9395 83.2634 11.9123 85.2975 13.8579C87.3315 15.774 88.3486 18.6777 88.3486 22.569V36.2326H82.9097L83.794 27.7426H83.1307C82.0695 33.8153 78.8858 36.8516 73.5795 36.8516C70.5431 36.8516 68.2732 36.2031 66.7698 34.906C65.2664 33.6089 64.5146 31.7665 64.5146 29.3787C64.5146 26.814 65.5317 24.8094 67.5657 23.3649C69.5998 21.9204 72.533 21.1982 76.3653 21.1982H82.8212C82.5264 19.6358 81.8189 18.4861 80.6987 17.7491C79.608 16.9827 78.0456 16.5995 76.0115 16.5995C74.5965 16.5995 73.4026 16.8942 72.4298 17.4838C71.457 18.0439 70.5284 18.9283 69.644 20.137L65.1337 17.0859C66.5487 15.0518 68.1258 13.5189 69.8651 12.4871C71.6339 11.4553 73.6827 10.9395 76.0115 10.9395ZM74.4197 31.1474C76.8959 31.1474 78.7973 30.6168 80.1239 29.5556C81.4504 28.4943 82.2906 26.9319 82.6443 24.8684H76.3653C74.2428 24.8684 72.6804 25.1484 71.6781 25.7085C70.6758 26.2391 70.1747 27.0646 70.1747 28.1848C70.1747 29.0691 70.5284 29.7914 71.2359 30.3515C71.9434 30.8821 73.0047 31.1474 74.4197 31.1474Z" fill="white"/>
<path d="M41.8222 0.857422C48.1897 0.857422 52.8179 2.41982 55.7068 5.54461C58.6253 8.6694 60.0845 12.9439 60.0845 18.3681C60.0845 23.8512 58.6253 28.1994 55.7068 31.4126C52.7884 34.6258 48.1602 36.2324 41.8222 36.2324H29.8389V0.857422H35.3662V0.90164L41.8222 0.857422ZM41.8222 30.6609C46.0672 30.6314 49.2509 29.6144 51.3734 27.6098C53.4959 25.6052 54.5572 22.5246 54.5572 18.3681C54.5572 10.4087 50.3122 6.42899 41.8222 6.42899H35.3662V30.7051L41.8222 30.6609Z" fill="white"/>
<path d="M4.06813 24.0723C4.98198 26.3716 6.02849 28.0372 7.20766 29.069C8.4163 30.1008 10.0671 30.6167 12.1602 30.6167C14.3711 30.6167 16.1988 29.9976 17.6433 28.7595C19.0878 27.4919 19.81 25.6789 19.81 23.3206C19.81 21.5223 19.2204 20.1958 18.0413 19.3409C16.8621 18.4565 15.3144 18.0143 13.3983 18.0143C11.5116 18.0143 9.59547 18.3975 7.64985 19.164L5.35047 13.4155L16.4936 5.94258H1.415V0.857422H24.6741V5.94258L10.6567 14.4326C12.1602 14.1967 13.4867 14.0788 14.6364 14.0788C18.0265 14.0788 20.6649 14.8895 22.5516 16.5109C24.4677 18.1027 25.4258 20.3726 25.4258 23.3206C25.4258 27.4182 24.2614 30.6019 21.9325 32.8718C19.6037 35.1122 16.3462 36.2324 12.1602 36.2324C9.21224 36.2324 6.70651 35.4365 4.64297 33.8446C2.57943 32.2527 1.03177 29.8944 0 26.7696L4.06813 24.0723Z" fill="#FF4365"/>
</svg>
