<svg width="41" height="40" viewBox="0 0 41 40" fill="none" xmlns="http://www.w3.org/2000/svg">
<path fill-rule="evenodd" clip-rule="evenodd" d="M20.3337 9.21933C19.7383 9.21933 19.2556 9.70199 19.2556 10.2974L19.2556 18.9222L10.6313 18.9222C10.0359 18.9222 9.55329 19.4049 9.55329 20.0003C9.55329 20.5957 10.0359 21.0783 10.6313 21.0783L19.2556 21.0783L19.2556 29.7023C19.2556 30.2977 19.7383 30.7803 20.3337 30.7803C20.929 30.7803 21.4117 30.2977 21.4117 29.7023L21.4117 21.0783L30.0362 21.0783C30.6316 21.0783 31.1143 20.5957 31.1143 20.0003C31.1143 19.4049 30.6316 18.9222 30.0363 18.9222H21.4117L21.4117 10.2974C21.4117 9.70199 20.929 9.21933 20.3337 9.21933Z" fill="white"/>
</svg>
