<svg width="12" height="104" viewBox="0 0 12 104" fill="none" xmlns="http://www.w3.org/2000/svg">
<path d="M6.37646 0L0.161513 9.73179L11.697 10.2482L6.37646 0ZM6.37646 104L11.6989 93.7528L0.163309 94.2671L6.37646 104ZM6.11301 6.00882L5.11391 5.96646C5.05659 7.31844 5.00151 8.65077 4.94866 9.9649L5.94785 10.0051L6.94704 10.0453C6.99983 8.73266 7.05485 7.40178 7.11211 6.05118L6.11301 6.00882ZM5.792 14.0003L4.79271 13.9626C4.74173 15.3128 4.69324 16.6444 4.64722 17.959L5.64661 17.994L6.64599 18.029C6.69194 16.7162 6.74037 15.3865 6.79129 14.038L5.792 14.0003ZM5.51252 21.9971L4.51303 21.9652C4.46987 23.3167 4.42946 24.6512 4.39179 25.971L5.39138 25.9995L6.39097 26.0281C6.42858 24.7107 6.46892 23.3783 6.51201 22.0291L5.51252 21.9971ZM5.28451 29.9988L4.28482 29.974C4.25137 31.3206 4.22088 32.6534 4.19335 33.9745L5.19313 33.9953L6.19291 34.0161C6.22039 32.6978 6.25081 31.3677 6.2842 30.0237L5.28451 29.9988ZM5.11823 37.9973L4.11837 37.9807C4.09611 39.3253 4.07702 40.6599 4.06106 41.9871L5.06099 41.9991L6.06092 42.0111C6.07684 40.687 6.09589 39.3555 6.11809 38.0138L5.11823 37.9973ZM5.02229 45.9985L4.02232 45.9912C4.01253 47.3308 4.00599 48.6652 4.0027 49.9972L5.0027 49.9997L6.0027 50.0021C6.00598 48.6734 6.0125 47.3422 6.02226 46.0059L5.02229 45.9985ZM5.00257 54.0008L4.00257 54.0032C4.00579 55.3375 4.01225 56.672 4.02196 58.0095L5.02193 58.0022L6.02191 57.9949C6.01222 56.6607 6.00577 55.3294 6.00257 53.9984L5.00257 54.0008ZM5.06049 62.0023L4.06056 62.0143C4.0765 63.3428 4.09558 64.6767 4.11779 66.0187L5.11766 66.0021L6.11752 65.9856C6.09536 64.6466 6.07632 63.3157 6.06042 61.9903L5.06049 62.0023ZM5.19266 70.0047L4.19287 70.0256C4.22051 71.3492 4.25109 72.6828 4.28462 74.0288L5.28431 74.0039L6.284 73.979C6.25054 72.6356 6.22001 71.3047 6.19244 69.9839L5.19266 70.0047ZM5.39143 78.0009L4.39184 78.0296C4.42963 79.3497 4.47014 80.6835 4.51335 82.033L5.51284 82.001L6.51233 81.969C6.46918 80.6216 6.42874 79.2901 6.39102 77.9723L5.39143 78.0009ZM5.64725 86.0042L4.64786 86.0392C4.69405 87.3561 4.74269 88.6893 4.79376 90.0404L5.79305 90.0027L6.79234 89.9649C6.74133 88.6155 6.69276 87.2841 6.64663 85.9691L5.64725 86.0042ZM5.94893 93.9967L4.94974 94.0369C5.00258 95.3512 5.0576 96.6832 5.11479 98.0345L6.1139 97.9923L7.11301 97.95C7.05587 96.6 7.00091 95.2693 6.94813 93.9566L5.94893 93.9967ZM6.37646 0L0.161513 9.73179L11.697 10.2482L6.37646 0ZM6.37646 104L11.6989 93.7528L0.163309 94.2671L6.37646 104ZM6.11301 6.00882L5.11391 5.96646C5.05659 7.31844 5.00151 8.65077 4.94866 9.9649L5.94785 10.0051L6.94704 10.0453C6.99983 8.73266 7.05485 7.40178 7.11211 6.05118L6.11301 6.00882ZM5.792 14.0003L4.79271 13.9626C4.74173 15.3128 4.69324 16.6444 4.64722 17.959L5.64661 17.994L6.64599 18.029C6.69194 16.7162 6.74037 15.3865 6.79129 14.038L5.792 14.0003ZM5.51252 21.9971L4.51303 21.9652C4.46987 23.3167 4.42946 24.6512 4.39179 25.971L5.39138 25.9995L6.39097 26.0281C6.42858 24.7107 6.46892 23.3783 6.51201 22.0291L5.51252 21.9971ZM5.28451 29.9988L4.28482 29.974C4.25137 31.3206 4.22088 32.6534 4.19335 33.9745L5.19313 33.9953L6.19291 34.0161C6.22039 32.6978 6.25081 31.3677 6.2842 30.0237L5.28451 29.9988ZM5.11823 37.9973L4.11837 37.9807C4.09611 39.3253 4.07702 40.6599 4.06106 41.9871L5.06099 41.9991L6.06092 42.0111C6.07684 40.687 6.09589 39.3555 6.11809 38.0138L5.11823 37.9973ZM5.02229 45.9985L4.02232 45.9912C4.01253 47.3308 4.00599 48.6652 4.0027 49.9972L5.0027 49.9997L6.0027 50.0021C6.00598 48.6734 6.0125 47.3422 6.02226 46.0059L5.02229 45.9985ZM5.00257 54.0008L4.00257 54.0032C4.00579 55.3375 4.01225 56.672 4.02196 58.0095L5.02193 58.0022L6.02191 57.9949C6.01222 56.6607 6.00577 55.3294 6.00257 53.9984L5.00257 54.0008ZM5.06049 62.0023L4.06056 62.0143C4.0765 63.3428 4.09558 64.6767 4.11779 66.0187L5.11766 66.0021L6.11752 65.9856C6.09536 64.6466 6.07632 63.3157 6.06042 61.9903L5.06049 62.0023ZM5.19266 70.0047L4.19287 70.0256C4.22051 71.3492 4.25109 72.6828 4.28462 74.0288L5.28431 74.0039L6.284 73.979C6.25054 72.6356 6.22001 71.3047 6.19244 69.9839L5.19266 70.0047ZM5.39143 78.0009L4.39184 78.0296C4.42963 79.3497 4.47014 80.6835 4.51335 82.033L5.51284 82.001L6.51233 81.969C6.46918 80.6216 6.42874 79.2901 6.39102 77.9723L5.39143 78.0009ZM5.64725 86.0042L4.64786 86.0392C4.69405 87.3561 4.74269 88.6893 4.79376 90.0404L5.79305 90.0027L6.79234 89.9649C6.74133 88.6155 6.69276 87.2841 6.64663 85.9691L5.64725 86.0042ZM5.94893 93.9967L4.94974 94.0369C5.00258 95.3512 5.0576 96.6832 5.11479 98.0345L6.1139 97.9923L7.11301 97.95C7.05587 96.6 7.00091 95.2693 6.94813 93.9566L5.94893 93.9967Z" fill="white"/>
</svg>
