<svg width="24" height="24" viewBox="0 0 24 24" fill="none" xmlns="http://www.w3.org/2000/svg">
<path d="M19.0594 6.46064C19.8241 6.46064 20.444 5.84072 20.444 5.07602C20.444 4.31132 19.8241 3.69141 19.0594 3.69141C18.2947 3.69141 17.6748 4.31132 17.6748 5.07602C17.6748 5.84072 18.2947 6.46064 19.0594 6.46064Z" fill="#BC96FF"/>
<path d="M15.369 3.69306C16.1337 3.69306 16.7536 3.07315 16.7536 2.30844C16.7536 1.54374 16.1337 0.923828 15.369 0.923828C14.6043 0.923828 13.9844 1.54374 13.9844 2.30844C13.9844 3.07315 14.6043 3.69306 15.369 3.69306Z" fill="#BC96FF"/>
<path d="M11.6766 2.76923C12.4413 2.76923 13.0612 2.14932 13.0612 1.38462C13.0612 0.619913 12.4413 0 11.6766 0C10.9119 0 10.292 0.619913 10.292 1.38462C10.292 2.14932 10.9119 2.76923 11.6766 2.76923Z" fill="#BC96FF"/>
<path d="M7.98325 4.61493C8.74795 4.61493 9.36786 3.99502 9.36786 3.23032C9.36786 2.46562 8.74795 1.8457 7.98325 1.8457C7.21855 1.8457 6.59863 2.46562 6.59863 3.23032C6.59863 3.99502 7.21855 4.61493 7.98325 4.61493Z" fill="#BC96FF"/>
<path d="M17.6757 5.07707V11.0771C17.6757 11.3318 17.4689 11.5386 17.2142 11.5386C16.9594 11.5386 16.7526 11.3318 16.7526 11.0771V2.30784H13.9834V10.154C13.9834 10.4088 13.7766 10.6155 13.5219 10.6155C13.2671 10.6155 13.0603 10.4088 13.0603 10.154V1.38477H10.2911V10.154C10.2911 10.4088 10.0843 10.6155 9.82955 10.6155C9.57479 10.6155 9.36802 10.4088 9.36802 10.154V3.23092H6.59879V14.7694L4.72955 12.2115C4.17571 11.3577 3.09479 11.0715 2.30279 11.5608C1.51355 12.0611 1.31786 13.1522 1.86432 14.0032C1.86432 14.0032 4.87909 18.566 6.16402 20.5192C7.44894 22.4725 9.53048 24.0002 13.4231 24.0002C19.868 24.0002 20.4449 19.0229 20.4449 17.5386C20.4449 16.0543 20.4449 5.07707 20.4449 5.07707H17.6757Z" fill="#BC96FF"/>
</svg>
