<svg width="32" height="30" viewBox="0 0 32 30" fill="none" xmlns="http://www.w3.org/2000/svg">
<path fill-rule="evenodd" clip-rule="evenodd" d="M24.6133 5.87431C24.6766 5.98502 24.7875 6.0641 24.93 6.0641C28.73 6.0641 31.8333 9.16399 31.8333 12.9598V22.3543C31.8333 26.1501 28.73 29.25 24.93 29.25H7.06996C3.25413 29.25 0.166626 26.1501 0.166626 22.3543V12.9598C0.166626 9.16399 3.25413 6.0641 7.06996 6.0641C7.19663 6.0641 7.32329 6.00083 7.37079 5.87431L7.46579 5.68452C7.52037 5.56964 7.57639 5.45164 7.63326 5.33186C8.03832 4.47867 8.48644 3.53477 8.76412 2.98002C9.49246 1.5566 10.7275 0.765816 12.2633 0.75H19.7208C21.2566 0.765816 22.5075 1.5566 23.2358 2.98002C23.4852 3.47822 23.8651 4.28072 24.2313 5.05419C24.3069 5.21379 24.3818 5.37216 24.455 5.52636L24.6133 5.87431ZM23.4575 11.9476C23.4575 12.7383 24.0908 13.371 24.8825 13.371C25.6741 13.371 26.3233 12.7383 26.3233 11.9476C26.3233 11.1568 25.6741 10.5083 24.8825 10.5083C24.0908 10.5083 23.4575 11.1568 23.4575 11.9476ZM13.2608 14.399C14.005 13.6557 14.9708 13.2603 16 13.2603C17.0291 13.2603 17.995 13.6557 18.7233 14.3832C19.4516 15.1107 19.8475 16.0755 19.8475 17.1035C19.8316 19.2228 18.1216 20.9467 16 20.9467C14.9708 20.9467 14.005 20.5513 13.2766 19.8238C12.5483 19.0963 12.1525 18.1315 12.1525 17.1035V17.0877C12.1366 16.0913 12.5325 15.1265 13.2608 14.399ZM20.3858 21.5003C19.2616 22.6232 17.71 23.3191 16 23.3191C14.3375 23.3191 12.7858 22.6706 11.5983 21.5003C10.4266 20.3141 9.77746 18.7642 9.77746 17.1035C9.76163 15.4587 10.4108 13.9087 11.5825 12.7225C12.77 11.5363 14.3375 10.8879 16 10.8879C17.6625 10.8879 19.23 11.5363 20.4016 12.7067C21.5733 13.8929 22.2225 15.4587 22.2225 17.1035C22.2066 18.8274 21.51 20.3774 20.3858 21.5003Z" fill="white"/>
</svg>
