<svg width="18" height="22" viewBox="0 0 18 22" fill="none" xmlns="http://www.w3.org/2000/svg">
<path d="M17 4H11.5M1 4H6.5M6.5 4V3.5C6.5 2.11929 7.61929 1 9 1V1C10.3807 1 11.5 2.11929 11.5 3.5V4M6.5 4H11.5M7 11V17M11 11V17M6.60189 21H11.3981C12.8911 21 14.1568 19.9022 14.368 18.4243L15.8369 8.14142C15.923 7.53899 15.4555 7 14.847 7H3.15301C2.54446 7 2.077 7.53899 2.16306 8.14142L3.63204 18.4243C3.84317 19.9022 5.10894 21 6.60189 21Z" stroke="#FF4365" stroke-width="1.5" stroke-linecap="round" stroke-linejoin="round"/>
</svg>
