<svg width="25" height="24" viewBox="0 0 25 24" fill="none" xmlns="http://www.w3.org/2000/svg">
<path d="M24.8436 21.998C24.9136 22.2955 24.8261 22.6105 24.6102 22.8264C24.4469 22.9955 24.2194 23.083 23.9919 23.083C23.9219 23.083 23.8519 23.0772 23.7819 23.0597L19.9086 22.103C18.2344 22.9605 16.3561 23.258 14.4661 22.9839C12.6519 22.7097 11.0011 21.8989 9.71191 20.7089C9.99775 20.738 10.2894 20.7497 10.5752 20.7497C11.1119 20.7497 11.6544 20.7089 12.1911 20.6272C16.9511 19.9272 20.6902 16.1005 21.2794 11.3289C21.4836 9.66637 21.3086 8.00387 20.7777 6.46387C22.8836 7.84637 24.3827 10.0805 24.7677 12.6822C25.0477 14.578 24.7444 16.4505 23.8869 18.1247L24.8436 21.998Z" fill="#D7FF81"/>
<path d="M18.6766 11.0044C18.2309 14.589 15.3807 17.5056 11.8078 18.033C9.90731 18.3135 8.11298 17.9315 6.60798 17.0932L2.40856 18.1251L3.44106 13.928C2.60165 12.423 2.21898 10.6287 2.49898 8.72763C3.02573 5.15355 5.94298 2.3028 9.52815 1.85713C14.8592 1.19505 19.3392 5.67446 18.6766 11.0044Z" fill="#D7FF81"/>
<path d="M9.52837 1.85713C5.9432 2.30221 3.02595 5.15296 2.4992 8.72763C2.2192 10.6287 2.60187 12.423 3.44129 13.928L2.4082 18.1251L6.60762 17.0932C8.11262 17.932 9.90695 18.3135 11.8075 18.033C15.381 17.5056 18.2311 14.589 18.6762 11.0044C19.3389 5.67446 14.8589 1.19505 9.52837 1.85713Z" stroke="#D7FF81" stroke-width="3" stroke-miterlimit="10" stroke-linejoin="round"/>
</svg>
