<svg width="22" height="22" viewBox="0 0 22 22" fill="none" xmlns="http://www.w3.org/2000/svg">
<path d="M9.92173 1.29731C9.9218 0.702126 10.4045 0.219625 10.9997 0.219384C11.595 0.219384 12.0783 0.702607 12.0783 1.298L12.0776 9.92208H20.7023C21.2977 9.92208 21.781 10.4053 21.781 11.0007C21.7808 11.5958 21.2982 12.0784 20.703 12.0786H12.0783V20.702C12.0783 21.2974 11.595 21.7806 10.9997 21.7806C10.4046 21.7804 9.92191 21.2978 9.92173 20.7027L9.92104 12.0786H1.29765C0.702429 12.0785 0.219907 11.5959 0.219725 11.0007C0.219725 10.4053 0.702317 9.92284 1.29765 9.92277H9.92104L9.92173 1.29731Z" fill="white"/>
</svg>
