<svg width="49" height="49" viewBox="0 0 49 49" fill="none" xmlns="http://www.w3.org/2000/svg">
<g clip-path="url(#clip0_1826_7148)">
<path d="M12.1558 12.6133C12.5019 11.6232 13.5863 11.1006 14.5764 11.4466L24.74 14.9993L28.3272 16.2532L32.8415 17.8312C32.8415 17.8312 31.8174 13.6087 31.669 11.6111C31.6274 11.0545 31.6779 10.506 31.8568 9.99425C32.7918 7.31942 35.258 7.94129 35.258 7.94129L37.1733 13.9781L40.4291 19.4115C41.5872 21.346 41.8271 23.6967 41.0832 25.8251L38.0783 34.4217C37.155 37.063 34.2649 38.456 31.6235 37.5327L21.8662 34.1221C20.6227 33.6874 19.9213 32.3728 20.2507 31.0965L23.4861 18.5865L13.3225 15.0338C12.3324 14.6877 11.8098 13.6033 12.1558 12.6133Z" fill="white"/>
</g>
<defs>
<clipPath id="clip0_1826_7148">
<rect width="38" height="38" fill="white" transform="matrix(-0.329969 0.943992 0.943992 0.329969 12.5391 0)"/>
</clipPath>
</defs>
</svg>
