<svg width="24" height="24" viewBox="0 0 24 24" fill="none" xmlns="http://www.w3.org/2000/svg">
<path d="M20.449 12.1534C20.0485 12.0882 19.0465 11.9806 17.8127 12.5434C15.7907 10.6126 12.9182 10.9283 11.2877 12.7797C9.83461 14.3798 9.90136 17.2276 10.984 19.5222C8.35148 18.3784 1.84148 14.9434 1.49648 8.97719C1.32398 5.97344 3.60398 3.39719 6.59273 3.22469C9.33398 3.06719 11.2165 4.96094 11.2165 4.96094C11.2165 4.96094 12.8665 2.86094 15.6077 2.70344C18.5965 2.53094 21.1577 4.82969 21.3302 7.83719C21.4202 9.40844 21.0677 10.8522 20.449 12.1534Z" fill="white"/>
<path d="M19.9032 13.2637C18.3672 13.0203 17.2017 13.9814 17.2017 13.9814C17.2017 13.9814 16.3902 12.7072 14.8542 12.4638C13.181 12.1987 11.6086 13.3488 11.342 15.0322C10.6771 19.2284 15.8709 22.3852 15.8709 22.3852C15.8709 22.3852 21.7854 20.9883 22.4499 16.792C22.7169 15.1087 21.5765 13.5288 19.9032 13.2637Z" fill="white"/>
</svg>
