<svg width="17" height="16" viewBox="0 0 17 16" fill="none" xmlns="http://www.w3.org/2000/svg">
<path d="M5.40026 0.0841143C5.92513 0.0999719 6.43327 0.192055 6.92565 0.359505H6.97448C7.00764 0.375257 7.03301 0.392564 7.04967 0.408333C7.23384 0.4675 7.4084 0.53444 7.57507 0.626107L7.89147 0.767708C8.01634 0.834303 8.16648 0.957982 8.24987 1.00892C8.3332 1.05809 8.42487 1.10962 8.49987 1.16712C9.42559 0.459707 10.5497 0.075876 11.7079 0.0841143C12.2337 0.0841143 12.7595 0.158802 13.2587 0.326302C16.3342 1.32647 17.4423 4.70163 16.5165 7.6515C15.9915 9.15882 15.1327 10.5343 14.0087 11.6583C12.3995 13.2166 10.634 14.6005 8.73327 15.7921L8.52526 15.9181L8.30846 15.7833C6.40103 14.6 4.62496 13.2171 3.00085 11.6505C1.88431 10.5265 1.0254 9.15879 0.492057 7.6515C-0.449603 4.70152 0.658329 1.32625 3.76745 0.308724C4.00911 0.22539 4.25866 0.166419 4.50866 0.133919H4.60827C4.84242 0.0997566 5.07514 0.0841143 5.30846 0.0841143H5.40026Z" fill="white"/>
</svg>
