<svg width="24" height="24" viewBox="0 0 24 24" fill="none" xmlns="http://www.w3.org/2000/svg">
<path d="M11.04 1.43945C10.7757 1.43945 10.56 1.65508 10.56 1.91945V5.63945L8.64003 10.5595V20.6395C8.83878 21.1982 9.45378 21.5995 10.08 21.5995H19.2C20.2594 21.5995 21.12 20.7388 21.12 19.6795C21.12 19.2838 20.9944 18.9201 20.79 18.6145C21.5382 18.352 22.08 17.6357 22.08 16.7995C22.08 16.3288 21.9113 15.9032 21.63 15.5695C22.1869 15.2338 22.56 14.617 22.56 13.9195C22.56 13.4488 22.3913 13.0232 22.11 12.6895C22.6669 12.3538 23.04 11.737 23.04 11.0395C23.04 9.98008 22.1794 9.11945 21.12 9.11945H14.1C14.3925 8.1932 14.88 6.5357 14.88 5.75945C14.88 3.95195 13.5563 1.43945 12.255 1.43945H11.04ZM1.44003 9.11945C1.30316 9.11945 1.17191 9.18133 1.08003 9.28445C0.988159 9.38758 0.943159 9.52258 0.960034 9.65945L2.40003 21.1795C2.43003 21.4195 2.63816 21.5995 2.88003 21.5995H7.20003C7.46441 21.5995 7.68003 21.3857 7.68003 21.1195V9.59945C7.68003 9.33508 7.46441 9.11945 7.20003 9.11945H1.44003ZM5.52003 18.2395C5.91753 18.2395 6.24003 18.562 6.24003 18.9595C6.24003 19.357 5.91753 19.6795 5.52003 19.6795C5.12253 19.6795 4.80003 19.357 4.80003 18.9595C4.80003 18.562 5.12253 18.2395 5.52003 18.2395Z" fill="#FF4365"/>
</svg>
