<svg width="29" height="28" viewBox="0 0 29 28" fill="none" xmlns="http://www.w3.org/2000/svg">
<path d="M24.4579 14.1792C23.9906 14.1031 22.8216 13.9775 21.3823 14.6342C19.0233 12.3815 15.672 12.7499 13.7698 14.9098C12.0745 16.7766 12.1523 20.099 13.4154 22.7761C10.3441 21.4417 2.74914 17.4342 2.34664 10.4736C2.14539 6.96918 4.80539 3.96355 8.29227 3.7623C11.4904 3.57855 13.6866 5.78793 13.6866 5.78793C13.6866 5.78793 15.6116 3.33793 18.8098 3.15418C22.2966 2.95293 25.2848 5.6348 25.486 9.14355C25.591 10.9767 25.1798 12.6611 24.4579 14.1792Z" fill="#BC96FF"/>
<path d="M23.8214 15.4746C22.0294 15.1907 20.6696 16.312 20.6696 16.312C20.6696 16.312 19.7229 14.8254 17.9309 14.5414C15.9787 14.2321 14.1443 15.5739 13.8332 17.5379C13.0576 22.4335 19.1169 26.1164 19.1169 26.1164C19.1169 26.1164 26.0172 24.4867 26.7924 19.591C27.1039 17.6271 25.7735 15.7839 23.8214 15.4746Z" fill="#BC96FF"/>
</svg>
