<svg width="238" height="29" viewBox="0 0 238 29" fill="none" xmlns="http://www.w3.org/2000/svg">
<path d="M24.7434 21.15C25.3468 21.5933 26.0796 21.9813 26.9417 22.3138C27.6806 22.6094 28.592 22.8803 29.6758 23.1266C30.7719 23.3606 32.0465 23.4776 33.4998 23.4776C34.756 23.4776 35.8089 23.3976 36.6587 23.2375C37.5085 23.065 38.1859 22.8372 38.6908 22.5539C39.2081 22.2584 39.5714 21.9197 39.7807 21.5379C40.0024 21.1438 40.1133 20.7251 40.1133 20.2817C40.1133 19.6167 39.9162 19.0809 39.5221 18.6745C39.1403 18.2558 38.543 17.9356 37.7302 17.7139C36.9174 17.4922 35.8828 17.3444 34.6266 17.2705C33.3705 17.1843 31.8741 17.1412 30.1376 17.1412V11.9871C31.6894 11.9871 33.0441 11.944 34.2018 11.8578C35.3594 11.7593 36.32 11.593 37.0836 11.359C37.8595 11.1127 38.4322 10.7802 38.8016 10.3615C39.1834 9.93043 39.3743 9.38854 39.3743 8.73581C39.3743 8.39098 39.2943 8.06461 39.1342 7.75672C38.9741 7.44883 38.6723 7.17789 38.229 6.94389C37.7979 6.70989 37.2006 6.52516 36.437 6.38969C35.6735 6.25422 34.6944 6.18648 33.4998 6.18648C32.2805 6.18648 31.1906 6.30964 30.23 6.55595C29.2693 6.80226 28.4504 7.06705 27.773 7.35031C26.9848 7.69514 26.2828 8.08309 25.667 8.51413L21.492 5.00418C22.2802 4.2283 23.2532 3.53862 24.4108 2.93515C24.9035 2.67653 25.4577 2.42406 26.0734 2.17774C26.7015 1.91912 27.3912 1.69743 28.1425 1.5127C28.906 1.31565 29.7312 1.15555 30.6179 1.03239C31.5046 0.909234 32.4653 0.847656 33.4998 0.847656C35.1624 0.847656 36.7203 0.995444 38.1735 1.29102C39.6391 1.57428 40.9138 2.02996 41.9975 2.65805C43.0936 3.28615 43.9557 4.10514 44.5838 5.11502C45.2119 6.11259 45.526 7.31952 45.526 8.73581C45.526 10.0043 45.1996 11.1312 44.5469 12.1165C43.8942 13.0894 42.8473 13.8222 41.4064 14.3148C41.9483 14.4872 42.5025 14.7212 43.069 15.0168C43.6478 15.3124 44.1713 15.7003 44.6392 16.1806C45.1196 16.6486 45.5075 17.2213 45.8031 17.8986C46.111 18.5637 46.2649 19.358 46.2649 20.2817C46.2649 21.6118 46.0001 22.8064 45.4706 23.8656C44.9533 24.9124 44.1651 25.8053 43.106 26.5442C42.0468 27.2708 40.7167 27.8312 39.1157 28.2253C37.5147 28.6194 35.6427 28.8164 33.4998 28.8164C32.3175 28.8164 31.2275 28.7549 30.23 28.6317C29.2447 28.5209 28.3334 28.3669 27.4959 28.1699C26.6708 27.9728 25.9257 27.7511 25.2606 27.5048C24.6079 27.2585 24.0229 27.006 23.5056 26.7474C22.2987 26.1439 21.3196 25.4481 20.5684 24.6599L24.7434 21.15Z" fill="#FF4365"/>
<path d="M0 17.6037V13.8351L16.7873 4.98633V11.0826L9.05198 15.7194L16.7873 20.3562V26.4525L0 17.6037Z" fill="#FF4365"/>
<path d="M237.249 22.739V28.3135H214.738V1.1377H237.249V6.71221H223.092V12.1172H236.407V17.2021H223.092V22.739H237.249Z" fill="white"/>
<path d="M202.163 28.3135H193.832V6.71221H184.773V1.1377H211.222V6.71221H202.163V28.3135Z" fill="white"/>
<path d="M168.351 28.9907C163.419 28.9907 159.527 27.7226 156.675 25.1865C153.822 22.6378 152.396 19.1474 152.396 14.7154C152.396 10.296 153.822 6.8182 156.675 4.28205C159.542 1.73334 163.435 0.458984 168.351 0.458984C172.357 0.458984 175.741 1.43201 178.502 3.37807C181.264 5.31158 182.819 7.79751 183.168 10.8359H175.066C174.717 9.41713 173.935 8.29344 172.721 7.4648C171.507 6.6236 170.05 6.203 168.351 6.203C166.06 6.203 164.246 6.96259 162.911 8.48177C161.576 10.001 160.908 12.0726 160.908 14.6966C160.908 17.3583 161.576 19.4488 162.911 20.9679C164.246 22.4871 166.067 23.2467 168.374 23.2467C170.088 23.2467 171.538 22.8449 172.721 22.0414C173.92 21.2379 174.709 20.133 175.088 18.7268H183.214C182.819 21.8154 181.264 24.3013 178.548 26.1846C175.847 28.0554 172.448 28.9907 168.351 28.9907Z" fill="white"/>
<path d="M148.559 22.739V28.3135H126.048V1.1377H148.559V6.71221H134.401V12.1172H147.716V17.2021H134.401V22.739H148.559Z" fill="white"/>
<path d="M121.097 28.3135H113.746V11.3451H113.586L105.461 28.031H100.681L92.5779 11.3451H92.3958V28.3135H85.0439V1.1377H94.6946L102.98 18.5957H103.162L111.447 1.1377H121.097V28.3135Z" fill="white"/>
<path d="M70.0554 28.3135H54.373V1.1377H69.6457C72.8778 1.1377 75.4118 1.74035 77.2479 2.94565C79.084 4.15095 80.002 5.80824 80.002 7.91751C80.002 9.42414 79.3874 10.7299 78.1583 11.8347C76.9444 12.9396 75.4194 13.5988 73.5834 13.8122V13.9629C75.8291 14.0507 77.7107 14.7099 79.2281 15.9403C80.7607 17.1707 81.527 18.6836 81.527 20.479C81.527 22.8645 80.4876 24.7666 78.4087 26.1854C76.3451 27.6041 73.5606 28.3135 70.0554 28.3135ZM62.7264 6.03423V12.2114H67.0282C68.5456 12.2114 69.7292 11.9352 70.5789 11.3828C71.4438 10.8178 71.8763 10.0456 71.8763 9.06632C71.8763 8.11212 71.4818 7.37136 70.6927 6.84404C69.9188 6.30417 68.8339 6.03423 67.4379 6.03423H62.7264ZM62.7264 23.4169H67.6883C69.4181 23.4169 70.7382 23.1156 71.6487 22.513C72.5743 21.8978 73.0371 21.0189 73.0371 19.8764C73.0371 18.7715 72.5667 17.9177 71.6259 17.3151C70.6851 16.7124 69.3574 16.4111 67.6427 16.4111H62.7264V23.4169Z" fill="white"/>
</svg>
