<svg width="75" height="20" viewBox="0 0 75 20" fill="none" xmlns="http://www.w3.org/2000/svg">
<path d="M64.4719 13.3616C64.6469 14.316 65.0764 15.0795 65.7603 15.6521C66.4602 16.2088 67.335 16.4872 68.3848 16.4872C70.0708 16.4872 71.407 15.835 72.3931 14.5307L74.4211 15.9145C73.8008 17.0916 72.9578 17.9744 71.8921 18.5629C70.8264 19.1514 69.6573 19.4457 68.3848 19.4457C67.1282 19.4457 65.9671 19.1355 64.9014 18.5152C63.8357 17.8789 62.9847 17.028 62.3485 15.9623C61.7281 14.8807 61.418 13.7036 61.418 12.4311C61.418 11.1586 61.7281 9.98955 62.3485 8.92385C62.9847 7.85815 63.8357 7.01513 64.9014 6.39479C65.9671 5.75855 67.1282 5.44043 68.3848 5.44043C69.7209 5.44043 70.898 5.77446 71.9159 6.44251C72.9339 7.11056 73.7133 8.04902 74.2541 9.25788C74.7949 10.4508 75.0415 11.8187 74.9938 13.3616H64.4719ZM68.3848 8.35123C67.3986 8.35123 66.5556 8.63754 65.8558 9.21016C65.1718 9.76687 64.7185 10.4826 64.4958 11.3575H72.1307C71.9398 10.419 71.4944 9.68734 70.7946 9.16244C70.1106 8.62164 69.3074 8.35123 68.3848 8.35123Z" fill="white"/>
<path d="M54.6996 12.0963C54.6996 13.5119 54.7712 14.4663 54.9144 14.9594C55.0575 15.4524 55.3916 15.7706 55.9165 15.9137C56.4573 16.041 57.4991 16.1046 59.042 16.1046V19.087C56.6879 19.087 55.0098 18.8961 54.0077 18.5144C53.0057 18.1326 52.3694 17.4964 52.099 16.6056C51.8445 15.699 51.7173 14.1959 51.7173 12.0963V8.63671H49.0928V5.58276H51.7173V0.954102H54.6996V5.58276H59.0181V8.63671H54.6996V12.0963Z" fill="white"/>
<path d="M41.0129 5.44043C43.2557 5.44043 44.9258 5.96533 46.0233 7.01513C47.1208 8.04902 47.6696 9.61576 47.6696 11.7154V19.0878H44.7349L45.2121 14.5069H44.8542C44.2816 17.7835 42.5638 19.4218 39.7007 19.4218C38.0624 19.4218 36.8376 19.0719 36.0264 18.372C35.2152 17.6722 34.8096 16.678 34.8096 15.3897C34.8096 14.0058 35.3583 12.9242 36.4558 12.1448C37.5534 11.3654 39.136 10.9757 41.2038 10.9757H44.6872C44.5282 10.1327 44.1464 9.51237 43.542 9.11472C42.9535 8.70116 42.1104 8.49439 41.0129 8.49439C40.2494 8.49439 39.6052 8.65345 39.0803 8.97157C38.5554 9.27378 38.0544 9.75096 37.5772 10.4031L35.1436 8.75684C35.9071 7.65932 36.7581 6.83221 37.6965 6.2755C38.6509 5.71879 39.7563 5.44043 41.0129 5.44043ZM40.154 16.344C41.4901 16.344 42.516 16.0577 43.2318 15.4851C43.9476 14.9125 44.4009 14.0695 44.5918 12.956H41.2038C40.0586 12.956 39.2155 13.1071 38.6747 13.4094C38.1339 13.6957 37.8635 14.141 37.8635 14.7455C37.8635 15.2226 38.0544 15.6123 38.4361 15.9145C38.8179 16.2009 39.3905 16.344 40.154 16.344Z" fill="white"/>
<path d="M22.5664 0C26.0021 0 28.4993 0.84302 30.0581 2.52906C31.6328 4.2151 32.4202 6.52147 32.4202 9.44818C32.4202 12.4067 31.6328 14.7528 30.0581 16.4866C28.4834 18.2204 25.9862 19.0872 22.5664 19.0872H16.1006V0H19.083V0.0238588L22.5664 0ZM22.5664 16.081C24.8569 16.0651 26.5747 15.5163 27.7199 14.4347C28.8652 13.3531 29.4378 11.6909 29.4378 9.44818C29.4378 5.15355 27.1473 3.00624 22.5664 3.00624H19.083V16.1049L22.5664 16.081Z" fill="white"/>
<path d="M2.19503 12.526C2.68812 13.7667 3.25278 14.6654 3.88902 15.2221C4.54117 15.7788 5.43191 16.0571 6.56124 16.0571C7.75419 16.0571 8.74036 15.7231 9.51976 15.0551C10.2992 14.3711 10.6889 13.3929 10.6889 12.1204C10.6889 11.1501 10.3707 10.4344 9.73449 9.97308C9.09825 9.4959 8.26318 9.25731 7.22929 9.25731C6.21131 9.25731 5.17741 9.46409 4.12761 9.87765L2.88694 6.77597L8.89942 2.74379H0.763489V0H13.3133V2.74379L5.75003 7.32473C6.56124 7.19748 7.27701 7.13385 7.89734 7.13385C9.72654 7.13385 11.1501 7.57127 12.1681 8.4461C13.202 9.30503 13.719 10.5298 13.719 12.1204C13.719 14.3313 13.0907 16.0492 11.8341 17.274C10.5775 18.4828 8.81989 19.0872 6.56124 19.0872C4.97063 19.0872 3.61862 18.6578 2.5052 17.7988C1.39178 16.9399 0.556711 15.6674 0 13.9814L2.19503 12.526Z" fill="#FF4365"/>
</svg>
