<svg width="45" height="44" viewBox="0 0 45 44" fill="none" xmlns="http://www.w3.org/2000/svg">
<path d="M6.36474 3.8667C6.00146 4.59802 6.00146 5.55538 6.00146 7.47009V36.5299C6.00146 38.4446 6.00146 39.402 6.36474 40.1333C6.68429 40.7766 7.19417 41.2996 7.82131 41.6274C8.53428 42 9.46761 42 11.3343 42H14.6673C16.5339 42 17.4672 42 18.1802 41.6274C18.8074 41.2996 19.3172 40.7766 19.6368 40.1333C20.0001 39.402 20.0001 38.4446 20.0001 36.5299V7.47009C20.0001 5.55538 20.0001 4.59802 19.6368 3.8667C19.3172 3.22341 18.8074 2.7004 18.1802 2.37263C17.4672 2 16.5339 2 14.6673 2H11.3343C9.46761 2 8.53428 2 7.82131 2.37263C7.19417 2.7004 6.68429 3.22341 6.36474 3.8667Z" fill="white"/>
<path d="M25.3628 3.8667C24.9996 4.59802 24.9996 5.55538 24.9996 7.47009V36.5299C24.9996 38.4446 24.9996 39.402 25.3628 40.1333C25.6824 40.7766 26.1923 41.2996 26.8194 41.6274C27.5324 42 28.4657 42 30.3324 42H33.6654C35.532 42 36.4653 42 37.1783 41.6274C37.8055 41.2996 38.3153 40.7766 38.6349 40.1333C38.9982 39.402 38.9982 38.4446 38.9982 36.5299V7.47009C38.9982 5.55538 38.9982 4.59802 38.6349 3.8667C38.3153 3.22341 37.8055 2.7004 37.1783 2.37263C36.4653 2 35.532 2 33.6654 2H30.3324C28.4657 2 27.5324 2 26.8194 2.37263C26.1923 2.7004 25.6824 3.22341 25.3628 3.8667Z" fill="white"/>
</svg>
