<svg width="28" height="32" viewBox="0 0 28 32" fill="none" xmlns="http://www.w3.org/2000/svg">
<path d="M17.435 4.19432C17.8166 4.46023 17.8166 5.02926 17.435 5.29516L12.3055 8.86987C11.8659 9.17623 11.2663 8.85863 11.2663 8.31945V6.24978C6.31886 7.48465 2.65089 11.9949 2.65089 17.3699C2.65089 23.6961 7.73206 28.8245 14 28.8245C20.2679 28.8245 25.3491 23.6961 25.3491 17.3699C25.3491 13.5054 23.4543 10.0874 20.5452 8.0108C19.9475 7.58416 19.8057 6.74932 20.2284 6.14612C20.6511 5.54292 21.4783 5.39978 22.0759 5.82641C25.6573 8.38302 28 12.6003 28 17.3699C28 25.1737 21.732 31.5 14 31.5C6.26801 31.5 0 25.1737 0 17.3699C0 10.5102 4.84301 4.79225 11.2663 3.509V1.17003C11.2663 0.630851 11.8659 0.313255 12.3055 0.619614L17.435 4.19432Z" fill="white"/>
<path fill-rule="evenodd" clip-rule="evenodd" d="M14.6589 13.8121C15.223 12.8158 16.1537 11.9352 17.3965 11.9352C18.6392 11.9352 19.5699 12.8158 20.134 13.8121C20.7142 14.8368 21.0414 16.1855 21.0414 17.6207C21.0414 19.0559 20.7142 20.4046 20.134 21.4293C19.5699 22.4256 18.6392 23.3062 17.3965 23.3062C16.1537 23.3062 15.223 22.4256 14.6589 21.4293C14.0787 20.4046 13.7515 19.0559 13.7515 17.6207C13.7515 16.1855 14.0787 14.8368 14.6589 13.8121ZM16.3851 14.8077C16.0058 15.4776 15.7396 16.47 15.7396 17.6207C15.7396 18.7714 16.0058 19.7638 16.3851 20.4337C16.7804 21.132 17.1751 21.2996 17.3965 21.2996C17.6178 21.2996 18.0125 21.132 18.4078 20.4337C18.7871 19.7638 19.0533 18.7714 19.0533 17.6207C19.0533 16.47 18.7871 15.4776 18.4078 14.8077C18.0125 14.1094 17.6178 13.9419 17.3965 13.9419C17.1751 13.9419 16.7804 14.1094 16.3851 14.8077Z" fill="white"/>
<path d="M7.22381 13.9512C6.77139 14.2651 6.65678 14.8898 6.96782 15.3464C7.27885 15.803 7.89775 15.9187 8.35016 15.6047L9.44379 14.8459L9.44379 21.9684C9.44379 22.5226 9.88885 22.9718 10.4379 22.9718C10.9869 22.9718 11.432 22.5226 11.432 21.9684V12.9385C11.432 12.5659 11.2274 12.224 10.9007 12.0506C10.5739 11.8771 10.1789 11.9007 9.8747 12.1118L7.22381 13.9512Z" fill="white"/>
</svg>
