<svg width="20" height="20" viewBox="0 0 20 20" fill="none" xmlns="http://www.w3.org/2000/svg">
<path fill-rule="evenodd" clip-rule="evenodd" d="M9.15527e-05 10C9.15527e-05 4.48 4.47009 0 10.0001 0C15.5201 0 20.0001 4.48 20.0001 10C20.0001 15.52 15.5201 20 10.0001 20C4.47009 20 9.15527e-05 15.52 9.15527e-05 10ZM5.52009 11.2C4.86009 11.2 4.32009 10.66 4.32009 10C4.32009 9.34 4.86009 8.801 5.52009 8.801C6.18009 8.801 6.71009 9.34 6.71009 10C6.71009 10.66 6.18009 11.2 5.52009 11.2ZM8.80009 10C8.80009 10.66 9.34009 11.2 10.0001 11.2C10.6601 11.2 11.1901 10.66 11.1901 10C11.1901 9.34 10.6601 8.801 10.0001 8.801C9.34009 8.801 8.80009 9.34 8.80009 10ZM13.2801 10C13.2801 10.66 13.8101 11.2 14.4801 11.2C15.1401 11.2 15.6701 10.66 15.6701 10C15.6701 9.34 15.1401 8.801 14.4801 8.801C13.8101 8.801 13.2801 9.34 13.2801 10Z" fill="white"/>
</svg>
