<svg width="29" height="28" viewBox="0 0 29 28" fill="none" xmlns="http://www.w3.org/2000/svg">
<path d="M14.8001 13.9997C18.0218 13.9997 20.6335 11.388 20.6335 8.16634C20.6335 4.94468 18.0218 2.33301 14.8001 2.33301C11.5785 2.33301 8.9668 4.94468 8.9668 8.16634C8.9668 11.388 11.5785 13.9997 14.8001 13.9997Z" fill="#BC96FF"/>
<path d="M21.8124 16.333H7.78788C6.50805 16.333 5.4668 17.3743 5.4668 18.6541V19.5413C5.4668 21.4733 6.56638 23.144 8.56255 24.2448C10.2233 25.1618 12.4388 25.6663 14.8001 25.6663C19.2953 25.6663 24.1335 23.7495 24.1335 19.5413V18.6541C24.1335 17.3743 23.0922 16.333 21.8124 16.333Z" fill="#BC96FF"/>
</svg>
