<svg width="29" height="28" viewBox="0 0 29 28" fill="none" xmlns="http://www.w3.org/2000/svg">
<path d="M14.0039 1.16895C10.3406 1.16895 7.4649 2.45792 5.56152 4.44336C3.65815 6.4288 2.73145 9.0594 2.73145 11.6689C2.73145 14.8054 4.12344 16.7201 5.27441 18.3727C6.42538 20.0254 7.39811 21.4571 7.39811 24.5023C7.39814 24.8117 7.52107 25.1084 7.73985 25.3272C7.95864 25.546 8.25537 25.6689 8.56478 25.6689H17.8981C18.2075 25.6689 18.5042 25.546 18.723 25.3272C18.9418 25.1084 19.0647 24.8117 19.0648 24.5023C19.0648 24.0123 19.2109 23.6191 19.3587 23.3447C19.3614 23.3397 19.3628 23.3383 19.3656 23.3333H21.2568C23.254 23.3333 24.8958 21.6885 24.8958 19.6921V16.6774L25.8779 15.153C25.9987 14.9646 26.0628 14.7455 26.0625 14.5218C26.0625 13.8367 25.6861 13.3147 25.4062 12.9974C25.1264 12.6801 24.878 12.4509 24.6497 12.1589C24.1933 11.5747 23.7292 10.7675 23.7292 8.78418C23.7292 4.53054 19.5584 1.16895 14.0039 1.16895ZM13.2337 6.99772C15.1657 6.99772 16.736 8.56572 16.736 10.4977C16.736 12.0226 15.7607 13.3199 14.4027 13.8018V15.1689H15.5693C16.2122 15.1689 16.736 15.6928 16.736 16.3356C16.736 16.9796 16.2122 17.5023 15.5693 17.5023H14.4027C14.4027 18.1463 13.8766 18.6689 13.2337 18.6689C12.5897 18.6689 12.0671 18.1463 12.0671 17.5023L12.0648 13.804C10.7056 13.3234 9.73145 12.026 9.73145 10.5C9.73145 8.568 11.2994 6.99889 13.2337 6.99772ZM13.2314 9.33105C12.5874 9.33105 12.0648 9.85717 12.0648 10.5C12.0648 11.144 12.5874 11.6689 13.2314 11.6689C13.8731 11.6689 14.4004 11.144 14.4004 10.5C14.4004 9.85833 13.8743 9.33105 13.2314 9.33105Z" fill="#BC96FF"/>
</svg>
