<svg width="24" height="24" viewBox="0 0 24 24" fill="none" xmlns="http://www.w3.org/2000/svg">
<g id="Iconly/Bold/Time Circle">
<g id="Time Circle">
<path id="Time Circle_2" fill-rule="evenodd" clip-rule="evenodd" d="M12 22C6.48 22 2 17.53 2 12C2 6.48 6.48 2 12 2C17.53 2 22 6.48 22 12C22 17.53 17.53 22 12 22ZM15.1904 15.7097C15.3104 15.7797 15.4404 15.8197 15.5804 15.8197C15.8304 15.8197 16.0804 15.6897 16.2204 15.4497C16.4304 15.0997 16.3204 14.6397 15.9604 14.4197L12.4004 12.2997V7.67969C12.4004 7.25969 12.0604 6.92969 11.6504 6.92969C11.2404 6.92969 10.9004 7.25969 10.9004 7.67969V12.7297C10.9004 12.9897 11.0404 13.2297 11.2704 13.3697L15.1904 15.7097Z" fill="#D7FF81"/>
</g>
</g>
</svg>
