<svg width="24" height="24" viewBox="0 0 24 24" fill="none" xmlns="http://www.w3.org/2000/svg">
<g clip-path="url(#clip0_161_6390)">
<path d="M12.0004 1.60156C8.60679 1.60156 7.20039 3.77836 7.20039 6.40156C7.20039 7.28476 7.62227 8.17188 7.62227 8.17188C7.45267 8.26947 7.17374 8.57929 7.24414 9.12969C7.37534 10.1561 7.82032 10.4175 8.10352 10.4391C8.21152 11.3967 9.24039 12.6216 9.60039 12.8V14.4C8.80039 16.8 2.40039 15.2 2.40039 20.8H11.6191C11.3527 20.048 11.2004 19.2432 11.2004 18.4C11.2004 15.5688 12.8385 13.1268 15.2145 11.95C15.5417 11.494 15.8413 10.9327 15.8973 10.4391C16.1805 10.4175 16.6254 10.1561 16.7566 9.12969C16.827 8.57849 16.5481 8.26947 16.3785 8.17188C16.3785 8.17188 16.8004 7.37036 16.8004 6.40156C16.8004 4.45916 16.038 2.80156 14.4004 2.80156C14.4004 2.80156 13.8316 1.60156 12.0004 1.60156ZM18.4004 12.8C15.3076 12.8 12.8004 15.3072 12.8004 18.4C12.8004 21.4928 15.3076 24 18.4004 24C21.4932 24 24.0004 21.4928 24.0004 18.4C24.0004 15.3072 21.4932 12.8 18.4004 12.8ZM18.4004 15.2C18.842 15.2 19.2004 15.5576 19.2004 16V17.6H20.8004C21.242 17.6 21.6004 17.9576 21.6004 18.4C21.6004 18.8424 21.242 19.2 20.8004 19.2H19.2004V20.8C19.2004 21.2424 18.842 21.6 18.4004 21.6C17.9588 21.6 17.6004 21.2424 17.6004 20.8V19.2H16.0004C15.5588 19.2 15.2004 18.8424 15.2004 18.4C15.2004 17.9576 15.5588 17.6 16.0004 17.6H17.6004V16C17.6004 15.5576 17.9588 15.2 18.4004 15.2Z" fill="#BC96FF"/>
</g>
<defs>
<clipPath id="clip0_161_6390">
<rect width="24" height="24" fill="white"/>
</clipPath>
</defs>
</svg>
