<svg width="28" height="28" viewBox="0 0 28 28" fill="none" xmlns="http://www.w3.org/2000/svg">
<path d="M26.5742 7.94594C26.2789 7.7625 25.9415 7.65791 25.5942 7.64219C25.247 7.62646 24.9015 7.70011 24.5908 7.8561L20.5413 9.87794V7.79427C20.5407 6.94356 20.2025 6.12786 19.601 5.52632C18.9994 4.92477 18.1837 4.58656 17.333 4.58594H5.66634C4.81563 4.58656 3.99993 4.92477 3.39839 5.52632C2.79684 6.12786 2.45863 6.94356 2.45801 7.79427V20.2076C2.45863 21.0583 2.79684 21.874 3.39839 22.4756C3.99993 23.0771 4.81563 23.4153 5.66634 23.4159H17.333C18.1837 23.4153 18.9994 23.0771 19.601 22.4756C20.2025 21.874 20.5407 21.0583 20.5413 20.2076V18.1239L24.5873 20.1458C24.8986 20.3012 25.2444 20.3746 25.5919 20.3589C25.9394 20.3432 26.2772 20.2389 26.5731 20.056C26.869 19.8731 27.1133 19.6176 27.2828 19.3138C27.4522 19.0099 27.5412 18.6678 27.5413 18.3199V9.68194C27.5422 9.33398 27.4538 8.99163 27.2844 8.68766C27.1151 8.3837 26.8705 8.1283 26.5742 7.94594ZM14.9997 14.8759H12.3747V17.5009C12.3747 17.733 12.2825 17.9556 12.1184 18.1197C11.9543 18.2837 11.7317 18.3759 11.4997 18.3759C11.2676 18.3759 11.0451 18.2837 10.881 18.1197C10.7169 17.9556 10.6247 17.733 10.6247 17.5009V14.8759H7.99967C7.76761 14.8759 7.54505 14.7837 7.38096 14.6197C7.21686 14.4556 7.12467 14.233 7.12467 14.0009C7.12467 13.7689 7.21686 13.5463 7.38096 13.3822C7.54505 13.2181 7.76761 13.1259 7.99967 13.1259H10.6247V10.5009C10.6247 10.2689 10.7169 10.0463 10.881 9.88222C11.0451 9.71813 11.2676 9.62594 11.4997 9.62594C11.7317 9.62594 11.9543 9.71813 12.1184 9.88222C12.2825 10.0463 12.3747 10.2689 12.3747 10.5009V13.1259H14.9997C15.2317 13.1259 15.4543 13.2181 15.6184 13.3822C15.7825 13.5463 15.8747 13.7689 15.8747 14.0009C15.8747 14.233 15.7825 14.4556 15.6184 14.6197C15.4543 14.7837 15.2317 14.8759 14.9997 14.8759Z" fill="#1B1A1B"/>
</svg>
