<svg width="28" height="28" viewBox="0 0 28 28" fill="none" xmlns="http://www.w3.org/2000/svg">
<path d="M13.8892 5.25C16.7147 5.25 18.6878 7.19701 18.688 9.9873V18.0127C18.6878 20.803 16.7147 22.75 13.8892 22.75H7.13232C4.30677 22.75 2.3337 20.803 2.3335 18.0127V9.9873C2.3337 7.19701 4.30677 5.25 7.13232 5.25H13.8892ZM23.2847 8.02539C23.7968 7.76492 24.3975 7.79267 24.8862 8.10059C25.3749 8.40734 25.6665 8.93984 25.6665 9.52246V18.4785C25.6664 19.0623 25.3749 19.5937 24.8862 19.9004C24.6191 20.0674 24.32 20.1533 24.019 20.1533C23.7684 20.1533 23.518 20.0931 23.2837 19.9736L21.5552 19.1025C20.9159 18.778 20.519 18.126 20.519 17.4023V10.5967C20.5191 9.87198 20.916 9.22061 21.5552 8.89844L23.2847 8.02539Z" fill="#D7FF81"/>
</svg>
