<svg width="122" height="31" viewBox="0 0 122 31" fill="none" xmlns="http://www.w3.org/2000/svg">
<path d="M3.016 0.155998H12.388C14.9107 0.155998 17.0667 1.05066 18.856 2.84C20.6453 4.6 21.54 6.756 21.54 9.308C21.54 11.3027 20.836 13.136 19.428 14.808C20.5133 15.5707 21.3787 16.5827 22.024 17.844C22.6987 19.1053 23.036 20.4547 23.036 21.892C23.036 24.3853 22.1413 26.5267 20.352 28.316C18.592 30.1053 16.4507 31 13.928 31H3.016C2.25333 31 1.59333 30.7213 1.036 30.164C0.478667 29.5773 0.2 28.9027 0.2 28.14C0.2 27.348 0.478667 26.6733 1.036 26.116C1.59333 25.5293 2.25333 25.236 3.016 25.236H13.928C14.8667 25.236 15.6587 24.9133 16.304 24.268C16.9787 23.6227 17.316 22.8307 17.316 21.892C17.316 20.924 16.9787 20.1027 16.304 19.428C15.6587 18.7533 14.8667 18.416 13.928 18.416H5.436C4.644 18.416 3.96933 18.1373 3.412 17.58C2.884 17.0227 2.62 16.3773 2.62 15.644C2.62 14.8227 2.884 14.148 3.412 13.62C3.96933 13.0627 4.644 12.784 5.436 12.784H12.388C13.3267 12.784 14.1333 12.4467 14.808 11.772C15.4827 11.068 15.82 10.2467 15.82 9.308C15.82 8.34 15.4827 7.53333 14.808 6.888C14.1333 6.21333 13.3267 5.876 12.388 5.876H3.016C2.25333 5.876 1.59333 5.58267 1.036 4.996C0.478667 4.40933 0.2 3.73467 0.2 2.972C0.2 2.18 0.478667 1.52 1.036 0.991998C1.59333 0.434665 2.25333 0.155998 3.016 0.155998ZM38.4401 5.876H33.6001V25.236H38.4401C41.1095 25.236 43.3828 24.2973 45.2601 22.42C47.1375 20.5133 48.0761 18.2253 48.0761 15.556C48.0761 12.8867 47.1375 10.6133 45.2601 8.736C43.3828 6.82933 41.1095 5.876 38.4401 5.876ZM30.7841 0.155998H38.4401C41.2268 0.155998 43.7935 0.845332 46.1401 2.224C48.5161 3.57333 50.3935 5.436 51.7721 7.812C53.1508 10.188 53.8401 12.7693 53.8401 15.556C53.8401 18.372 53.1508 20.968 51.7721 23.344C50.3935 25.6907 48.5161 27.5533 46.1401 28.932C43.7935 30.3107 41.2268 31 38.4401 31H30.7841C29.9628 31 29.2735 30.736 28.7161 30.208C28.1588 29.6507 27.8801 28.9613 27.8801 28.14V2.972C27.8801 2.18 28.1588 1.52 28.7161 0.991998C29.2735 0.434665 29.9628 0.155998 30.7841 0.155998ZM67.8665 25.72C69.5678 25.72 71.0198 25.1187 72.2225 23.916C73.4545 22.7133 74.0705 21.232 74.0705 19.472C74.0705 17.7707 73.4545 16.304 72.2225 15.072C71.0198 13.84 69.5678 13.224 67.8665 13.224C66.1358 13.224 64.6398 13.84 63.3785 15.072C62.1465 16.304 61.5305 17.7707 61.5305 19.472C61.5305 21.232 62.1465 22.7133 63.3785 23.916C64.6105 25.1187 66.1065 25.72 67.8665 25.72ZM74.1145 29.152C72.1785 30.384 70.0958 31 67.8665 31C64.6692 31 61.9558 29.8853 59.7265 27.656C57.4972 25.3973 56.3825 22.6693 56.3825 19.472C56.3825 16.3333 57.4972 13.6493 59.7265 11.42C61.9558 9.19067 64.6692 8.076 67.8665 8.076C71.0052 8.076 73.6892 9.19067 75.9185 11.42C78.1478 13.6493 79.2625 16.3333 79.2625 19.472V28.404C79.2625 29.108 78.9985 29.724 78.4705 30.252C77.9425 30.7507 77.3118 31 76.5785 31C75.9918 31 75.4638 30.824 74.9945 30.472C74.5545 30.12 74.2612 29.68 74.1145 29.152ZM86.4513 2.752C86.4513 2.01866 86.7007 1.40266 87.1993 0.903999C87.698 0.405332 88.2993 0.155998 89.0033 0.155998C89.766 0.155998 90.4113 0.419999 90.9393 0.947999C91.4673 1.44667 91.7313 2.048 91.7313 2.752V8.032H95.0313C95.7647 8.032 96.3807 8.296 96.8793 8.824C97.4073 9.32267 97.6713 9.924 97.6713 10.628C97.6713 11.332 97.4073 11.948 96.8793 12.476C96.3807 13.004 95.7647 13.268 95.0313 13.268H91.7313V28.404C91.7313 29.108 91.4673 29.724 90.9393 30.252C90.4113 30.7507 89.766 31 89.0033 31C88.3287 31 87.7273 30.7507 87.1993 30.252C86.7007 29.724 86.4513 29.108 86.4513 28.404V13.268H83.1073C82.4033 13.268 81.7873 13.004 81.2593 12.476C80.7607 11.948 80.5113 11.332 80.5113 10.628C80.5113 9.924 80.7607 9.32267 81.2593 8.824C81.7873 8.296 82.4033 8.032 83.1073 8.032H86.4513V2.752ZM98.8356 19.472C98.8356 16.304 99.9503 13.6053 102.18 11.376C104.438 9.14667 107.166 8.032 110.364 8.032C113.15 8.032 115.6 8.94133 117.712 10.76C119.824 12.5493 121.1 14.808 121.54 17.536C121.833 18.7093 121.73 19.648 121.232 20.352C120.762 21.0267 119.853 21.364 118.504 21.364H104.424C104.834 22.6547 105.582 23.7107 106.668 24.532C107.753 25.324 108.985 25.72 110.364 25.72C112.006 25.72 113.458 25.1187 114.72 23.916C115.248 23.388 115.878 23.124 116.612 23.124C117.345 23.124 117.946 23.388 118.416 23.916C118.914 24.4147 119.164 25.0307 119.164 25.764C119.164 26.4973 118.914 27.128 118.416 27.656C117.36 28.6827 116.128 29.504 114.72 30.12C113.341 30.7067 111.889 31 110.364 31C107.166 31 104.438 29.8853 102.18 27.656C99.9503 25.3973 98.8356 22.6693 98.8356 19.472ZM116.172 17.668C115.82 16.3773 115.101 15.3213 114.016 14.5C112.93 13.6493 111.713 13.224 110.364 13.224C108.985 13.224 107.753 13.6493 106.668 14.5C105.582 15.3213 104.849 16.3773 104.468 17.668H116.172Z" fill="white"/>
</svg>
